<svg version="1.1" id="icons" xmlns="http://www.w3.org/2000/svg" x="0" y="0" width="20" height="80" viewBox="0 0 20 80" xml:space="preserve"><style>.st0{fill:#009dc5}.st1{fill:#52c4ee}.st2{fill:#00708d}.st3{fill:#fff}</style><path class="st0" d="M9.59 8.27a2.53 2.53 0 00.12-.57v-.13c.07-.32.07-.58 0-.64v-.07l-.06-.06a.06.06 0 01-.06.06c-.13.46-.13.95 0 1.41zm-1.92 4.4a1.5 1.5 0 00-.32.19 3.32 3.32 0 00-.83 1c.39-.06.77-.44 1.15-1.21v.02zm5.87-1c-.06-.06-.32-.25-1.21-.25h-.13v.06c.38.18.79.288 1.21.32h.19v-.06a.06.06 0 01-.06-.07zm.26.51a1.21 1.21 0 01-.58.13 4.58 4.58 0 01-1.91-.45 10.72 10.72 0 00-2.55.51c-.07 0-.07 0-.13.07-.77 1.34-1.41 2-1.92 2-.12 0-.19 0-.25-.06l-.32-.19v-.06a.54.54 0 01-.07-.32 2.49 2.49 0 011.22-1.34c.13-.07.32-.19.57-.32.19-.32.39-.7.64-1.15a13 13 0 00.7-1.85 3 3 0 01-.13-2.1c.07-.26.26-.51.52-.51h.12a1 1 0 01.39.12c.44.45.25 1.47 0 2.3V9a4.36 4.36 0 001 1.66c.18.144.37.274.57.39.32 0 .57-.07.83-.07.77 0 1.28.13 1.47.45.05.12.07.25.06.38a4 4 0 01-.25.38l.02-.01zM9.65 9.74A15 15 0 019 11.26c-.12.26-.25.45-.38.71h.13a10 10 0 012.1-.58.77.77 0 01-.25-.19 6.26 6.26 0 01-1-1.46h.05z"/><path class="st0" d="M14 2H4a1 1 0 00-1 1v14a1 1 0 001 1h12a1 1 0 001-1V5l-3-3zm1.5 14.5h-11v-13H13v2a.51.51 0 00.5.5h2v10.5z"/><path class="st1" d="M9.59 28.27a2.53 2.53 0 00.12-.57v-.13c.07-.32.07-.58 0-.64v-.07l-.06-.06a.06.06 0 01-.06.06c-.13.46-.13.95 0 1.41zm-1.92 4.4a1.5 1.5 0 00-.32.19 3.32 3.32 0 00-.83 1c.39-.06.77-.44 1.15-1.21v.02zm5.87-1c-.06-.06-.32-.25-1.21-.25h-.13v.06c.38.18.79.288 1.21.32h.19v-.06a.06.06 0 01-.06-.07zm.26.51a1.21 1.21 0 01-.58.13 4.58 4.58 0 01-1.91-.45 10.72 10.72 0 00-2.55.51c-.07 0-.07 0-.13.07-.77 1.34-1.41 2-1.92 2-.12 0-.19 0-.25-.06l-.32-.19v-.06a.54.54 0 01-.07-.32 2.49 2.49 0 011.22-1.34c.13-.07.32-.19.57-.32.19-.32.39-.7.64-1.15a13 13 0 00.7-1.85 3 3 0 01-.13-2.1c.07-.26.26-.51.52-.51h.12a1 1 0 01.39.12c.44.45.25 1.47 0 2.3V29a4.36 4.36 0 001 1.66c.18.144.37.274.57.39.32 0 .57-.07.83-.07.77 0 1.28.13 1.47.45.05.12.07.25.06.38a4 4 0 01-.25.38l.02-.01zm-4.15-2.44A15 15 0 019 31.26c-.12.26-.25.45-.38.71h.13a10 10 0 012.1-.58.77.77 0 01-.25-.19 6.26 6.26 0 01-1-1.46h.05z"/><path class="st1" d="M14 22H4a1 1 0 00-1 1v14a1 1 0 001 1h12a1 1 0 001-1V25l-3-3zm1.5 14.5h-11v-13H13v2a.51.51 0 00.5.5h2v10.5z"/><path class="st2" d="M9.59 48.27a2.53 2.53 0 00.12-.57v-.13c.07-.32.07-.58 0-.64v-.07l-.06-.06a.06.06 0 01-.06.06c-.13.46-.13.95 0 1.41zm-1.92 4.4a1.5 1.5 0 00-.32.19 3.32 3.32 0 00-.83 1c.39-.06.77-.44 1.15-1.21v.02zm5.87-1c-.06-.06-.32-.25-1.21-.25h-.13v.06c.38.18.79.288 1.21.32h.19v-.06a.06.06 0 01-.06-.07zm.26.51a1.21 1.21 0 01-.58.13 4.58 4.58 0 01-1.91-.45 10.72 10.72 0 00-2.55.51c-.07 0-.07 0-.13.07-.77 1.34-1.41 2-1.92 2-.12 0-.19 0-.25-.06l-.32-.19v-.06a.54.54 0 01-.07-.32 2.49 2.49 0 011.22-1.34c.13-.07.32-.19.57-.32.19-.32.39-.7.64-1.15a13 13 0 00.7-1.85 3 3 0 01-.13-2.1c.07-.26.26-.51.52-.51h.12a1 1 0 01.39.12c.44.45.25 1.47 0 2.3V49a4.36 4.36 0 001 1.66c.18.144.37.274.57.39.32 0 .57-.07.83-.07.77 0 1.28.13 1.47.45.05.12.07.25.06.38a4 4 0 01-.25.38l.02-.01zm-4.15-2.44A15 15 0 019 51.26c-.12.26-.25.45-.38.71h.13a10 10 0 012.1-.58.77.77 0 01-.25-.19 6.26 6.26 0 01-1-1.46h.05z"/><path class="st2" d="M14 42H4a1 1 0 00-1 1v14a1 1 0 001 1h12a1 1 0 001-1V45l-3-3zm1.5 14.5h-11v-13H13v2a.5.5 0 00.5.5h2v10.5z"/><path class="st3" d="M9.59 68.27a2.53 2.53 0 00.12-.57v-.13c.07-.32.07-.58 0-.64v-.07l-.06-.06a.06.06 0 01-.06.06c-.13.46-.13.95 0 1.41zm-1.92 4.4a1.5 1.5 0 00-.32.19 3.32 3.32 0 00-.83 1c.39-.06.77-.44 1.15-1.21v.02zm5.87-1c-.06-.06-.32-.25-1.21-.25h-.13v.06c.38.18.79.288 1.21.32h.19v-.06a.06.06 0 01-.06-.07zm.26.51a1.21 1.21 0 01-.58.13 4.58 4.58 0 01-1.91-.45 10.72 10.72 0 00-2.55.51c-.07 0-.07 0-.13.07-.77 1.34-1.41 2-1.92 2-.12 0-.19 0-.25-.06l-.32-.19v-.06a.54.54 0 01-.07-.32 2.49 2.49 0 011.22-1.34c.13-.07.32-.19.57-.32.19-.32.39-.7.64-1.15a13 13 0 00.7-1.85 3 3 0 01-.13-2.1c.07-.26.26-.51.52-.51h.12a1 1 0 01.39.12c.44.45.25 1.47 0 2.3V69a4.36 4.36 0 001 1.66c.18.144.37.274.57.39.32 0 .57-.07.83-.07.77 0 1.28.13 1.47.45.05.12.07.25.06.38a4 4 0 01-.25.38l.02-.01zm-4.15-2.44A15 15 0 019 71.26c-.12.26-.25.45-.38.71h.13a10 10 0 012.1-.58.77.77 0 01-.25-.19 6.26 6.26 0 01-1-1.46h.05z"/><path class="st3" d="M14 62H4a1 1 0 00-1 1v14a1 1 0 001 1h12a1 1 0 001-1V65l-3-3zm1.5 14.5h-11v-13H13v2a.5.5 0 00.5.5h2v10.5z"/></svg>