<svg xmlns="http://www.w3.org/2000/svg" viewBox="0 0 20 40"><path d="M17 14H6a1 1 0 01-1-1V4a1 1 0 011-1h11a1 1 0 011 1v9a1 1 0 01-1 1zM6.5 12.5h10v-8h-10z" fill="#009dc5"/><path d="M15.75 17h-12A1.76 1.76 0 012 15.25v-10a.75.75 0 011.5 0v10a.25.25 0 00.25.25h12a.75.75 0 010 1.5z" fill="#009dc5"/><path d="M17 34H6a1 1 0 01-1-1v-9a1 1 0 011-1h11a1 1 0 011 1v9a1 1 0 01-1 1zM6.5 32.5h10v-8h-10z" fill="#52c4ee"/><path d="M15.75 37h-12A1.76 1.76 0 012 35.25v-10a.75.75 0 011.5 0v10a.25.25 0 00.25.25h12a.75.75 0 010 1.5z" fill="#52c4ee"/></svg>